<svg width="25" height="24" viewBox="0 0 25 24" fill="none" xmlns="http://www.w3.org/2000/svg">
<path d="M12.4 18.55L12.3 18.65L12.19 18.55C7.44002 14.24 4.30002 11.39 4.30002 8.5C4.30002 6.5 5.80002 5 7.80002 5C9.34002 5 10.84 6 11.37 7.36H13.23C13.76 6 15.26 5 16.8 5C18.8 5 20.3 6.5 20.3 8.5C20.3 11.39 17.16 14.24 12.4 18.55ZM16.8 3C15.06 3 13.39 3.81 12.3 5.08C11.21 3.81 9.54002 3 7.80002 3C4.72002 3 2.30002 5.41 2.30002 8.5C2.30002 12.27 5.70002 15.36 10.85 20.03L12.3 21.35L13.75 20.03C18.9 15.36 22.3 12.27 22.3 8.5C22.3 5.41 19.88 3 16.8 3Z" fill="#484C52"/>
</svg>
