<svg width="25" height="24" viewBox="0 0 25 24" fill="none" xmlns="http://www.w3.org/2000/svg">
<path fill-rule="evenodd" clip-rule="evenodd" d="M12.2861 1.21065C12.6472 0.929784 13.1528 0.929784 13.5139 1.21065L22.5139 8.21065C22.7575 8.4001 22.9 8.69141 22.9 9V20C22.9 20.7957 22.5839 21.5587 22.0213 22.1213C21.4587 22.6839 20.6957 23 19.9 23H5.9C5.10435 23 4.34129 22.6839 3.77868 22.1213C3.21607 21.5587 2.9 20.7957 2.9 20V9C2.9 8.69141 3.04247 8.4001 3.28606 8.21065L12.2861 1.21065ZM4.9 9.48908V20C4.9 20.2652 5.00536 20.5196 5.19289 20.7071C5.38043 20.8946 5.63479 21 5.9 21H19.9C20.1652 21 20.4196 20.8946 20.6071 20.7071C20.7946 20.5196 20.9 20.2652 20.9 20V9.48908L12.9 3.26686L4.9 9.48908Z" fill="#484C52"/>
<path fill-rule="evenodd" clip-rule="evenodd" d="M8.9 12C8.9 11.4477 9.34772 11 9.9 11H15.9C16.4523 11 16.9 11.4477 16.9 12V22C16.9 22.5523 16.4523 23 15.9 23C15.3477 23 14.9 22.5523 14.9 22V13H10.9V22C10.9 22.5523 10.4523 23 9.9 23C9.34772 23 8.9 22.5523 8.9 22V12Z" fill="#484C52"/>
</svg>
