<svg width="25" height="24" viewBox="0 0 25 24" fill="none" xmlns="http://www.w3.org/2000/svg">
<path d="M2.10001 10.0002C2.10001 8.33353 2.47101 6.8042 3.21301 5.4122C3.95501 4.0202 4.95067 2.8662 6.20001 1.9502L7.37501 3.5502C6.37501 4.28353 5.57901 5.20853 4.98701 6.3252C4.39501 7.44186 4.09934 8.66686 4.10001 10.0002H2.10001ZM20.1 10.0002C20.1 8.66686 19.804 7.44186 19.212 6.3252C18.62 5.20853 17.8247 4.28353 16.826 3.5502L18.001 1.9502C19.251 2.86686 20.247 4.0212 20.989 5.4132C21.731 6.8052 22.1013 8.3342 22.1 10.0002H20.1ZM4.10001 19.0002V17.0002H6.10001V10.0002C6.10001 8.61686 6.51667 7.38753 7.35001 6.31219C8.18334 5.23686 9.26667 4.53286 10.6 4.2002V3.5002C10.6 3.08353 10.746 2.7292 11.038 2.4372C11.33 2.1452 11.684 1.99953 12.1 2.0002C12.5167 2.0002 12.871 2.1462 13.163 2.4382C13.455 2.7302 13.6007 3.0842 13.6 3.5002V4.2002C14.9333 4.53353 16.0167 5.23786 16.85 6.3132C17.6833 7.38853 18.1 8.61753 18.1 10.0002V17.0002H20.1V19.0002H4.10001ZM12.1 22.0002C11.55 22.0002 11.079 21.8042 10.687 21.4122C10.295 21.0202 10.0993 20.5495 10.1 20.0002H14.1C14.1 20.5502 13.904 21.0212 13.512 21.4132C13.12 21.8052 12.6493 22.0009 12.1 22.0002ZM8.10001 17.0002H16.1V10.0002C16.1 8.9002 15.7083 7.95853 14.925 7.1752C14.1417 6.39186 13.2 6.0002 12.1 6.0002C11 6.0002 10.0583 6.39186 9.27501 7.1752C8.49167 7.95853 8.10001 8.9002 8.10001 10.0002V17.0002Z" fill="#484C52"/>
</svg>
