<svg width="25" height="26" viewBox="0 0 25 26" fill="none" xmlns="http://www.w3.org/2000/svg">
<g clip-path="url(#clip0_63_5857)">
<path d="M24.6199 10.9833L23.8542 9.65728L21.6875 10.9083V8.40625H20.1563V10.9083L17.9895 9.65728L17.2239 10.9833L19.3906 12.2344L17.2239 13.4854L17.9895 14.8115L20.1563 13.5604V16.0625H21.6875V13.5604L23.8542 14.8115L24.6199 13.4854L22.4531 12.2344L24.6199 10.9833ZM17.0938 23.7188H15.5625V19.8906C15.5613 18.8757 15.1576 17.9027 14.4399 17.1851C13.7223 16.4674 12.7493 16.0637 11.7344 16.0625H7.14063C6.12572 16.0637 5.15273 16.4674 4.43508 17.1851C3.71743 17.9027 3.31372 18.8757 3.31251 19.8906V23.7188H1.78126V19.8906C1.78288 18.4697 2.34805 17.1075 3.35277 16.1028C4.3575 15.098 5.71974 14.5329 7.14063 14.5312H11.7344C13.1553 14.5329 14.5175 15.098 15.5222 16.1028C16.527 17.1075 17.0921 18.4697 17.0938 19.8906V23.7188ZM9.43751 3.8125C10.4528 3.8125 11.4265 4.21582 12.1444 4.93373C12.8623 5.65164 13.2656 6.62534 13.2656 7.64062C13.2656 8.65591 12.8623 9.62961 12.1444 10.3475C11.4265 11.0654 10.4528 11.4688 9.43751 11.4688C8.42223 11.4688 7.44853 11.0654 6.73061 10.3475C6.0127 9.62961 5.60938 8.65591 5.60938 7.64062C5.60938 6.62534 6.0127 5.65164 6.73061 4.93373C7.44853 4.21582 8.42223 3.8125 9.43751 3.8125ZM9.43751 2.28125C8.01611 2.28125 6.65294 2.8459 5.64786 3.85097C4.64278 4.85605 4.07813 6.21923 4.07813 7.64062C4.07813 9.06202 4.64278 10.4252 5.64786 11.4303C6.65294 12.4354 8.01611 13 9.43751 13C10.8589 13 12.2221 12.4354 13.2272 11.4303C14.2322 10.4252 14.7969 9.06202 14.7969 7.64062C14.7969 6.21923 14.2322 4.85605 13.2272 3.85097C12.2221 2.8459 10.8589 2.28125 9.43751 2.28125Z" fill="#484C52"/>
</g>
<defs>
<clipPath id="clip0_63_5857">
<rect width="24.5" height="24.5" fill="white" transform="translate(0.250008 0.75)"/>
</clipPath>
</defs>
</svg>
