<svg width="25" height="24" viewBox="0 0 25 24" fill="none" xmlns="http://www.w3.org/2000/svg">
<path d="M19.6303 22.5H18.1741V18.75C18.173 17.7558 17.7891 16.8027 17.1066 16.0997C16.4241 15.3967 15.4988 15.0012 14.5337 15H10.1652C9.2 15.0012 8.27471 15.3967 7.59225 16.0997C6.90978 16.8027 6.52587 17.7558 6.52471 18.75V22.5H5.06853V18.75C5.07008 17.3581 5.60754 16.0237 6.563 15.0394C7.51847 14.0552 8.81392 13.5016 10.1652 13.5H14.5337C15.8849 13.5016 17.1804 14.0552 18.1358 15.0394C19.0913 16.0237 19.6288 17.3581 19.6303 18.75V22.5ZM12.3494 3C13.3149 3 14.2409 3.39509 14.9236 4.09835C15.6063 4.80161 15.9899 5.75544 15.9899 6.75C15.9899 7.74456 15.6063 8.69839 14.9236 9.40165C14.2409 10.1049 13.3149 10.5 12.3494 10.5C11.3839 10.5 10.458 10.1049 9.77524 9.40165C9.09252 8.69839 8.70898 7.74456 8.70898 6.75C8.70898 5.75544 9.09252 4.80161 9.77524 4.09835C10.458 3.39509 11.3839 3 12.3494 3ZM12.3494 1.5C10.9977 1.5 9.70137 2.05312 8.74556 3.03769C7.78976 4.02226 7.2528 5.35761 7.2528 6.75C7.2528 8.14239 7.78976 9.47774 8.74556 10.4623C9.70137 11.4469 10.9977 12 12.3494 12C13.7011 12 14.9975 11.4469 15.9533 10.4623C16.9091 9.47774 17.446 8.14239 17.446 6.75C17.446 5.35761 16.9091 4.02226 15.9533 3.03769C14.9975 2.05312 13.7011 1.5 12.3494 1.5Z" fill="#484C52"/>
</svg>
