<svg width="24" height="32" viewBox="0 0 24 32" fill="none" xmlns="http://www.w3.org/2000/svg">
<g id="Group 1000002307">
<path id="Vector" d="M14.8951 15.6055C14.0986 16.402 13.0183 16.8495 11.8919 16.8495C10.7655 16.8495 9.68523 16.402 8.88874 15.6055C8.09225 14.809 7.64479 13.7288 7.64479 12.6023C7.64479 11.4759 8.09225 10.3957 8.88874 9.59919C9.68523 8.8027 10.7655 8.35524 11.8919 8.35524C13.0183 8.35524 14.0986 8.8027 14.8951 9.59919C15.6915 10.3957 16.139 11.4759 16.139 12.6023C16.139 13.7288 15.6915 14.809 14.8951 15.6055ZM16.1271 27.1288C16.8447 26.158 17.5714 25.0321 18.2571 23.8307C19.2863 22.0272 20.2374 20.028 20.9334 18.0886C21.6251 16.1611 22.085 14.2375 22.085 12.6023C22.085 9.54155 21.0911 6.97472 19.2715 5.17192C17.4532 3.37036 14.8885 2.40929 11.8919 2.40929C8.89532 2.40929 6.33063 3.37036 4.51228 5.17192C2.69268 6.97472 1.69884 9.54155 1.69884 12.6023C1.69884 15.7997 3.26133 20.2303 5.19874 23.8137C5.24489 23.8991 5.29132 23.9841 5.33801 24.0687C4.1052 22.2377 2.98096 20.2118 2.16509 18.2418C1.33614 16.2401 0.849421 14.3533 0.849421 12.8113C0.849421 6.58626 5.80409 1.55987 11.8919 1.55987C17.9797 1.55987 22.9344 6.58626 22.9344 12.8113C22.9344 14.3533 22.4477 16.2401 21.6187 18.2418C20.7946 20.2317 19.6558 22.2788 18.4083 24.1243C17.6653 25.2234 16.8898 26.2421 16.1271 27.1288Z" fill="#6FFC2D" stroke="#6FFC2D" stroke-width="1.69884"/>
</g>
</svg>
