<svg width="24" height="25" viewBox="0 0 24 25" fill="none" xmlns="http://www.w3.org/2000/svg">
<g id="material-symbols:tour-outline">
<path id="Vector" d="M5 22.5V2.5H7V4.5H21L19 9.5L21 14.5H7V22.5H5ZM12.5 11.5C13.05 11.5 13.521 11.304 13.913 10.912C14.305 10.52 14.5007 10.0493 14.5 9.5C14.5 8.95 14.304 8.479 13.912 8.087C13.52 7.695 13.0493 7.49933 12.5 7.5C11.95 7.5 11.479 7.696 11.087 8.088C10.695 8.48 10.4993 8.95067 10.5 9.5C10.5 10.05 10.696 10.521 11.088 10.913C11.48 11.305 11.9507 11.5007 12.5 11.5ZM7 12.5H18.05L16.85 9.5L18.05 6.5H7V12.5Z" fill="#6FFC2D"/>
</g>
</svg>
