<svg width="24" height="25" viewBox="0 0 24 25" fill="none" xmlns="http://www.w3.org/2000/svg">
<g id="uil:create-dashboard">
<path id="Vector" d="M10 13.5H4C3.73478 13.5 3.48043 13.6054 3.29289 13.7929C3.10536 13.9804 3 14.2348 3 14.5V20.5C3 20.7652 3.10536 21.0196 3.29289 21.2071C3.48043 21.3946 3.73478 21.5 4 21.5H10C10.2652 21.5 10.5196 21.3946 10.7071 21.2071C10.8946 21.0196 11 20.7652 11 20.5V14.5C11 14.2348 10.8946 13.9804 10.7071 13.7929C10.5196 13.6054 10.2652 13.5 10 13.5ZM9 19.5H5V15.5H9V19.5ZM20 3.5H14C13.7348 3.5 13.4804 3.60536 13.2929 3.79289C13.1054 3.98043 13 4.23478 13 4.5V10.5C13 10.7652 13.1054 11.0196 13.2929 11.2071C13.4804 11.3946 13.7348 11.5 14 11.5H20C20.2652 11.5 20.5196 11.3946 20.7071 11.2071C20.8946 11.0196 21 10.7652 21 10.5V4.5C21 4.23478 20.8946 3.98043 20.7071 3.79289C20.5196 3.60536 20.2652 3.5 20 3.5ZM19 9.5H15V5.5H19V9.5ZM20 16.5H18V14.5C18 14.2348 17.8946 13.9804 17.7071 13.7929C17.5196 13.6054 17.2652 13.5 17 13.5C16.7348 13.5 16.4804 13.6054 16.2929 13.7929C16.1054 13.9804 16 14.2348 16 14.5V16.5H14C13.7348 16.5 13.4804 16.6054 13.2929 16.7929C13.1054 16.9804 13 17.2348 13 17.5C13 17.7652 13.1054 18.0196 13.2929 18.2071C13.4804 18.3946 13.7348 18.5 14 18.5H16V20.5C16 20.7652 16.1054 21.0196 16.2929 21.2071C16.4804 21.3946 16.7348 21.5 17 21.5C17.2652 21.5 17.5196 21.3946 17.7071 21.2071C17.8946 21.0196 18 20.7652 18 20.5V18.5H20C20.2652 18.5 20.5196 18.3946 20.7071 18.2071C20.8946 18.0196 21 17.7652 21 17.5C21 17.2348 20.8946 16.9804 20.7071 16.7929C20.5196 16.6054 20.2652 16.5 20 16.5ZM10 3.5H4C3.73478 3.5 3.48043 3.60536 3.29289 3.79289C3.10536 3.98043 3 4.23478 3 4.5V10.5C3 10.7652 3.10536 11.0196 3.29289 11.2071C3.48043 11.3946 3.73478 11.5 4 11.5H10C10.2652 11.5 10.5196 11.3946 10.7071 11.2071C10.8946 11.0196 11 10.7652 11 10.5V4.5C11 4.23478 10.8946 3.98043 10.7071 3.79289C10.5196 3.60536 10.2652 3.5 10 3.5ZM9 9.5H5V5.5H9V9.5Z" fill="#6FFC2D"/>
</g>
</svg>
