<svg width="24" height="25" viewBox="0 0 24 25" fill="none" xmlns="http://www.w3.org/2000/svg">
<g id="fluent-mdl2:add-friend" clip-path="url(#clip0_37_1352)">
<path id="Vector" d="M18 18.5H17.8477C17.668 17.625 17.3516 16.8203 16.8984 16.0859C16.4453 15.3516 15.8945 14.7188 15.2461 14.1875C14.5977 13.6562 13.8672 13.2422 13.0547 12.9453C12.2422 12.6484 11.3906 12.5 10.5 12.5C9.8125 12.5 9.14844 12.5898 8.50781 12.7695C7.86719 12.9492 7.26953 13.1992 6.71484 13.5195C6.16016 13.8398 5.65625 14.2305 5.20312 14.6914C4.75 15.1523 4.35938 15.6602 4.03125 16.2148C3.70312 16.7695 3.44922 17.3672 3.26953 18.0078C3.08984 18.6484 3 19.3125 3 20H1.5C1.5 19.0625 1.63672 18.1602 1.91016 17.293C2.18359 16.4258 2.57812 15.625 3.09375 14.8906C3.60938 14.1562 4.21875 13.5039 4.92188 12.9336C5.625 12.3633 6.42188 11.9141 7.3125 11.5859C6.42969 11.0078 5.74219 10.2812 5.25 9.40625C4.75781 8.53125 4.50781 7.5625 4.5 6.5C4.5 5.67188 4.65625 4.89453 4.96875 4.16797C5.28125 3.44141 5.70703 2.80469 6.24609 2.25781C6.78516 1.71094 7.42188 1.28125 8.15625 0.96875C8.89062 0.65625 9.67188 0.5 10.5 0.5C11.3281 0.5 12.1055 0.65625 12.832 0.96875C13.5586 1.28125 14.1953 1.70703 14.7422 2.24609C15.2891 2.78516 15.7188 3.42188 16.0312 4.15625C16.3438 4.89062 16.5 5.67188 16.5 6.5C16.5 7.01562 16.4375 7.51953 16.3125 8.01172C16.1875 8.50391 16 8.96875 15.75 9.40625C15.5 9.84375 15.207 10.2461 14.8711 10.6133C14.5352 10.9805 14.1406 11.3047 13.6875 11.5859C14.5625 11.9219 15.3672 12.3828 16.1016 12.9688C16.8359 13.5547 17.4688 14.2422 18 15.0312V18.5ZM6 6.5C6 7.125 6.11719 7.70703 6.35156 8.24609C6.58594 8.78516 6.90625 9.26172 7.3125 9.67578C7.71875 10.0898 8.19531 10.4141 8.74219 10.6484C9.28906 10.8828 9.875 11 10.5 11C11.1172 11 11.6992 10.8828 12.2461 10.6484C12.793 10.4141 13.2695 10.0938 13.6758 9.6875C14.082 9.28125 14.4062 8.80469 14.6484 8.25781C14.8906 7.71094 15.0078 7.125 15 6.5C15 5.88281 14.8828 5.30078 14.6484 4.75391C14.4141 4.20703 14.0938 3.73047 13.6875 3.32422C13.2812 2.91797 12.8008 2.59375 12.2461 2.35156C11.6914 2.10938 11.1094 1.99219 10.5 2C9.875 2 9.29297 2.11719 8.75391 2.35156C8.21484 2.58594 7.73828 2.90625 7.32422 3.3125C6.91016 3.71875 6.58594 4.19922 6.35156 4.75391C6.11719 5.30859 6 5.89062 6 6.5ZM21 20H24V21.5H21V24.5H19.5V21.5H16.5V20H19.5V17H21V20Z" fill="#6FFC2D"/>
</g>
<defs>
<clipPath id="clip0_37_1352">
<rect width="24" height="24" fill="white" transform="translate(0 0.5)"/>
</clipPath>
</defs>
</svg>
