<svg width="24" height="24" viewBox="0 0 24 24" fill="none" xmlns="http://www.w3.org/2000/svg">
<g id="mingcute:arrow-up-line" clip-path="url(#clip0_57_5003)">
<g id="Group">
<path id="Vector" d="M3.63556 11.293C3.44809 11.4806 3.34277 11.7349 3.34277 12C3.34277 12.2652 3.44809 12.5195 3.63556 12.707L9.29256 18.364C9.38481 18.4595 9.49515 18.5357 9.61716 18.5881C9.73916 18.6405 9.87038 18.6681 10.0032 18.6693C10.1359 18.6704 10.2676 18.6451 10.3905 18.5948C10.5134 18.5446 10.6251 18.4703 10.719 18.3764C10.8128 18.2825 10.8871 18.1709 10.9374 18.048C10.9877 17.9251 11.013 17.7934 11.0118 17.6606C11.0107 17.5278 10.9831 17.3966 10.9307 17.2746C10.8783 17.1526 10.8021 17.0423 10.7066 16.95L6.75656 13H19.9996C20.2648 13 20.5191 12.8947 20.7067 12.7071C20.8942 12.5196 20.9996 12.2652 20.9996 12C20.9996 11.7348 20.8942 11.4805 20.7067 11.2929C20.5191 11.1054 20.2648 11 19.9996 11H6.75656L10.7066 7.05002C10.8887 6.86142 10.9895 6.60882 10.9872 6.34662C10.985 6.08443 10.8798 5.83361 10.6944 5.6482C10.509 5.4628 10.2582 5.35763 9.99596 5.35535C9.73376 5.35307 9.48116 5.45386 9.29256 5.63602L3.63556 11.293Z" fill="white"/>
</g>
</g>
<defs>
<clipPath id="clip0_57_5003">
<rect width="24" height="24" fill="white" transform="matrix(0 -1 1 0 0 24)"/>
</clipPath>
</defs>
</svg>
