<svg width="201" height="32" viewBox="0 0 201 32" fill="none" xmlns="http://www.w3.org/2000/svg">
<path d="M14.8951 15.6055C14.0986 16.402 13.0183 16.8495 11.8919 16.8495C10.7655 16.8495 9.68523 16.402 8.88874 15.6055C8.09225 14.809 7.64479 13.7288 7.64479 12.6023C7.64479 11.4759 8.09225 10.3957 8.88874 9.59919C9.68523 8.8027 10.7655 8.35524 11.8919 8.35524C13.0183 8.35524 14.0986 8.8027 14.8951 9.59919C15.6915 10.3957 16.139 11.4759 16.139 12.6023C16.139 13.7288 15.6915 14.809 14.8951 15.6055ZM16.1271 27.1288C16.8447 26.158 17.5714 25.0321 18.2571 23.8307C19.2863 22.0272 20.2374 20.028 20.9334 18.0886C21.6251 16.1611 22.085 14.2375 22.085 12.6023C22.085 9.54155 21.0911 6.97472 19.2715 5.17192C17.4532 3.37036 14.8885 2.40929 11.8919 2.40929C8.89532 2.40929 6.33063 3.37036 4.51228 5.17192C2.69268 6.97472 1.69884 9.54155 1.69884 12.6023C1.69884 15.7997 3.26133 20.2303 5.19874 23.8137C5.24489 23.8991 5.29132 23.9841 5.33801 24.0687C4.1052 22.2377 2.98096 20.2118 2.16509 18.2418C1.33614 16.2401 0.849421 14.3533 0.849421 12.8113C0.849421 6.58626 5.80409 1.55987 11.8919 1.55987C17.9797 1.55987 22.9344 6.58626 22.9344 12.8113C22.9344 14.3533 22.4477 16.2401 21.6187 18.2418C20.7946 20.2317 19.6558 22.2788 18.4083 24.1243C17.6653 25.2234 16.8898 26.2421 16.1271 27.1288Z" fill="#6FFC2D" stroke="#6FFC2D" stroke-width="1.69884"/>
<path d="M39.5193 5.03125V22.0938H35.406V5.03125H39.5193ZM44.6521 5.03125V8.20703H30.3904V5.03125H44.6521Z" fill="#6FFC2D"/>
<path d="M49.1404 11.8516V26.9688H45.1912V9.41406H48.8709L49.1404 11.8516ZM56.9217 15.6016V15.8477C56.9217 16.7695 56.8162 17.625 56.6052 18.4141C56.3943 19.2031 56.0818 19.8906 55.6677 20.4766C55.2537 21.0625 54.7381 21.5195 54.1209 21.8477C53.5115 22.168 52.8045 22.3281 51.9998 22.3281C51.242 22.3281 50.5896 22.1602 50.0427 21.8242C49.4959 21.4883 49.0388 21.0234 48.6717 20.4297C48.3045 19.8359 48.0076 19.1562 47.781 18.3906C47.5545 17.625 47.3748 16.8164 47.242 15.9648V15.6484C47.3748 14.7344 47.5545 13.8867 47.781 13.1055C48.0076 12.3164 48.3045 11.6289 48.6717 11.043C49.0388 10.457 49.492 10 50.031 9.67188C50.5779 9.34375 51.2302 9.17969 51.9881 9.17969C52.7927 9.17969 53.4998 9.33203 54.1092 9.63672C54.7263 9.94141 55.242 10.3789 55.656 10.9492C56.0779 11.5117 56.3943 12.1875 56.6052 12.9766C56.8162 13.7656 56.9217 14.6406 56.9217 15.6016ZM52.9724 15.8477V15.6016C52.9724 15.1094 52.9373 14.6602 52.867 14.2539C52.7967 13.8398 52.6834 13.4805 52.5271 13.1758C52.3787 12.8711 52.1795 12.6367 51.9295 12.4727C51.6795 12.3086 51.3709 12.2266 51.0037 12.2266C50.5818 12.2266 50.2263 12.293 49.9373 12.4258C49.656 12.5508 49.4295 12.7461 49.2576 13.0117C49.0935 13.2695 48.9763 13.5938 48.906 13.9844C48.8435 14.3672 48.8162 14.8164 48.824 15.332V16.293C48.8084 16.8867 48.867 17.4102 48.9998 17.8633C49.1326 18.3086 49.3631 18.6562 49.6912 18.9062C50.0193 19.1562 50.4646 19.2812 51.0271 19.2812C51.4021 19.2812 51.7146 19.1953 51.9646 19.0234C52.2146 18.8438 52.4138 18.5977 52.5623 18.2852C52.7107 17.9648 52.8162 17.5977 52.8787 17.1836C52.9412 16.7695 52.9724 16.3242 52.9724 15.8477Z" fill="#6FFC2D"/>
<path d="M58.1873 15.8828V15.6367C58.1873 14.707 58.3201 13.8516 58.5857 13.0703C58.8513 12.2812 59.242 11.5977 59.7576 11.0195C60.2732 10.4414 60.9099 9.99219 61.6677 9.67188C62.4256 9.34375 63.3006 9.17969 64.2927 9.17969C65.2927 9.17969 66.1717 9.34375 66.9295 9.67188C67.6951 9.99219 68.3357 10.4414 68.8513 11.0195C69.367 11.5977 69.7576 12.2812 70.0232 13.0703C70.2888 13.8516 70.4217 14.707 70.4217 15.6367V15.8828C70.4217 16.8047 70.2888 17.6602 70.0232 18.4492C69.7576 19.2305 69.367 19.9141 68.8513 20.5C68.3357 21.0781 67.699 21.5273 66.9412 21.8477C66.1834 22.168 65.3084 22.3281 64.3162 22.3281C63.324 22.3281 62.4451 22.168 61.6795 21.8477C60.9138 21.5273 60.2732 21.0781 59.7576 20.5C59.242 19.9141 58.8513 19.2305 58.5857 18.4492C58.3201 17.6602 58.1873 16.8047 58.1873 15.8828ZM62.1365 15.6367V15.8828C62.1365 16.3594 62.1717 16.8047 62.242 17.2188C62.3123 17.6328 62.4295 17.9961 62.5935 18.3086C62.7576 18.6133 62.9802 18.8516 63.2615 19.0234C63.5427 19.1953 63.8943 19.2812 64.3162 19.2812C64.7302 19.2812 65.074 19.1953 65.3474 19.0234C65.6287 18.8516 65.8513 18.6133 66.0154 18.3086C66.1795 17.9961 66.2967 17.6328 66.367 17.2188C66.4373 16.8047 66.4724 16.3594 66.4724 15.8828V15.6367C66.4724 15.1758 66.4373 14.7422 66.367 14.3359C66.2967 13.9219 66.1795 13.5586 66.0154 13.2461C65.8513 12.9258 65.6287 12.6758 65.3474 12.4961C65.0662 12.3164 64.7146 12.2266 64.2927 12.2266C63.8787 12.2266 63.531 12.3164 63.2498 12.4961C62.9763 12.6758 62.7576 12.9258 62.5935 13.2461C62.4295 13.5586 62.3123 13.9219 62.242 14.3359C62.1717 14.7422 62.1365 15.1758 62.1365 15.6367Z" fill="#6FFC2D"/>
<path d="M80.781 9.41406V12.4609H74.781V9.41406H80.781ZM76.0584 9.41406V22.0938H72.1092V9.41406H76.0584ZM83.5115 9.41406V22.0938H79.5506V9.41406H83.5115Z" fill="#6FFC2D"/>
<path d="M92.242 18.9062V13.6797C92.242 13.3203 92.1912 13.0117 92.0896 12.7539C91.9881 12.4961 91.8279 12.2969 91.6092 12.1562C91.3904 12.0078 91.0974 11.9336 90.7302 11.9336C90.4334 11.9336 90.1795 11.9844 89.9685 12.0859C89.7576 12.1875 89.5974 12.3398 89.4881 12.543C89.3787 12.7461 89.324 13.0039 89.324 13.3164H85.3748C85.3748 12.7305 85.5037 12.1875 85.7615 11.6875C86.0271 11.1797 86.4021 10.7383 86.8865 10.3633C87.3787 9.98828 87.9646 9.69922 88.6443 9.49609C89.3318 9.28516 90.0974 9.17969 90.9412 9.17969C91.949 9.17969 92.8474 9.34766 93.6365 9.68359C94.4334 10.0195 95.0623 10.5234 95.5232 11.1953C95.9842 11.8594 96.2146 12.6953 96.2146 13.7031V18.8945C96.2146 19.7227 96.2615 20.3516 96.3552 20.7812C96.449 21.2031 96.5818 21.5742 96.7537 21.8945V22.0938H92.7927C92.6052 21.7031 92.4646 21.2266 92.3709 20.6641C92.2849 20.0938 92.242 19.5078 92.242 18.9062ZM92.7224 14.3477L92.7459 16.457H90.9998C90.6326 16.457 90.3201 16.5078 90.0623 16.6094C89.8123 16.7109 89.6092 16.8516 89.4529 17.0312C89.3045 17.2031 89.1951 17.3984 89.1248 17.6172C89.0623 17.8359 89.031 18.0664 89.031 18.3086C89.031 18.543 89.0857 18.7539 89.1951 18.9414C89.3123 19.1211 89.4685 19.2617 89.6638 19.3633C89.8592 19.4648 90.0779 19.5156 90.3201 19.5156C90.7576 19.5156 91.1287 19.4336 91.4334 19.2695C91.7459 19.0977 91.9842 18.8906 92.1482 18.6484C92.3123 18.4062 92.3943 18.1797 92.3943 17.9688L93.2615 19.5859C93.1052 19.8984 92.9256 20.2148 92.7224 20.5352C92.5271 20.8555 92.281 21.1523 91.9842 21.4258C91.6951 21.6914 91.3396 21.9102 90.9177 22.082C90.4959 22.2461 89.9842 22.3281 89.3826 22.3281C88.6013 22.3281 87.8826 22.168 87.2263 21.8477C86.5779 21.5273 86.0584 21.082 85.6677 20.5117C85.2771 19.9336 85.0818 19.2695 85.0818 18.5195C85.0818 17.8633 85.199 17.2773 85.4334 16.7617C85.6756 16.2461 86.0388 15.8086 86.5232 15.4492C87.0076 15.0898 87.6248 14.8164 88.3748 14.6289C89.1248 14.4414 90.0076 14.3477 91.0232 14.3477H92.7224Z" fill="#6FFC2D"/>
<path d="M112.489 4.9082V21.9707H108.376V4.9082H112.489ZM117.622 4.9082V8.08398H103.36V4.9082H117.622Z" fill="#1A1A1A"/>
<path d="M122.11 20.4824L125.392 9.29102H129.634L124.536 23.8574C124.427 24.1777 124.282 24.5215 124.102 24.8887C123.923 25.2637 123.677 25.6191 123.364 25.9551C123.052 26.291 122.649 26.5645 122.157 26.7754C121.673 26.9863 121.071 27.0918 120.352 27.0918C119.97 27.0918 119.688 27.0723 119.509 27.0332C119.337 27.002 119.071 26.9434 118.712 26.8574V24.0332C118.813 24.0332 118.899 24.0332 118.97 24.0332C119.048 24.0332 119.134 24.0332 119.227 24.0332C119.649 24.0332 119.985 23.9902 120.235 23.9043C120.493 23.8184 120.688 23.6934 120.821 23.5293C120.962 23.3652 121.071 23.166 121.149 22.9316L122.11 20.4824ZM121.278 9.29102L123.774 18.1621L124.208 22.3457H121.56L117.048 9.29102H121.278Z" fill="#1A1A1A"/>
<path d="M134.649 11.7285V26.8457H130.7V9.29102H134.38L134.649 11.7285ZM142.431 15.4785V15.7246C142.431 16.6465 142.325 17.502 142.114 18.291C141.903 19.0801 141.591 19.7676 141.177 20.3535C140.763 20.9395 140.247 21.3965 139.63 21.7246C139.02 22.0449 138.313 22.2051 137.509 22.2051C136.751 22.2051 136.099 22.0371 135.552 21.7012C135.005 21.3652 134.548 20.9004 134.181 20.3066C133.813 19.7129 133.517 19.0332 133.29 18.2676C133.063 17.502 132.884 16.6934 132.751 15.8418V15.5254C132.884 14.6113 133.063 13.7637 133.29 12.9824C133.517 12.1934 133.813 11.5059 134.181 10.9199C134.548 10.334 135.001 9.87695 135.54 9.54883C136.087 9.2207 136.739 9.05664 137.497 9.05664C138.302 9.05664 139.009 9.20898 139.618 9.51367C140.235 9.81836 140.751 10.2559 141.165 10.8262C141.587 11.3887 141.903 12.0645 142.114 12.8535C142.325 13.6426 142.431 14.5176 142.431 15.4785ZM138.481 15.7246V15.4785C138.481 14.9863 138.446 14.5371 138.376 14.1309C138.306 13.7168 138.192 13.3574 138.036 13.0527C137.888 12.748 137.688 12.5137 137.438 12.3496C137.188 12.1855 136.88 12.1035 136.513 12.1035C136.091 12.1035 135.735 12.1699 135.446 12.3027C135.165 12.4277 134.938 12.623 134.767 12.8887C134.602 13.1465 134.485 13.4707 134.415 13.8613C134.352 14.2441 134.325 14.6934 134.333 15.209V16.1699C134.317 16.7637 134.376 17.2871 134.509 17.7402C134.642 18.1855 134.872 18.5332 135.2 18.7832C135.528 19.0332 135.974 19.1582 136.536 19.1582C136.911 19.1582 137.224 19.0723 137.474 18.9004C137.724 18.7207 137.923 18.4746 138.071 18.1621C138.22 17.8418 138.325 17.4746 138.388 17.0605C138.45 16.6465 138.481 16.2012 138.481 15.7246Z" fill="#1A1A1A"/>
<path d="M148.079 16.6504L151.571 9.29102H155.52V21.9707H151.571V14.5879L148.079 21.9707H144.118V9.29102H148.079V16.6504Z" fill="#1A1A1A"/>
<path d="M163.794 15.9238H161.192V14.3301H162.821C163.157 14.3301 163.427 14.2793 163.63 14.1777C163.841 14.0762 163.993 13.9355 164.087 13.7559C164.188 13.5684 164.239 13.3574 164.239 13.123C164.239 12.9199 164.204 12.7246 164.134 12.5371C164.071 12.3496 163.946 12.1934 163.759 12.0684C163.571 11.9434 163.294 11.8809 162.927 11.8809C162.622 11.8809 162.356 11.9199 162.13 11.998C161.903 12.0762 161.727 12.1973 161.602 12.3613C161.477 12.5176 161.415 12.7207 161.415 12.9707H157.454C157.454 12.1504 157.688 11.4512 158.157 10.873C158.626 10.2871 159.255 9.8418 160.044 9.53711C160.833 9.22461 161.704 9.06836 162.657 9.06836C163.493 9.06836 164.251 9.15039 164.931 9.31445C165.61 9.4707 166.192 9.70508 166.677 10.0176C167.161 10.3301 167.532 10.7168 167.79 11.1777C168.056 11.6309 168.188 12.1582 168.188 12.7598C168.188 13.1895 168.087 13.5957 167.884 13.9785C167.681 14.3613 167.388 14.7012 167.005 14.998C166.622 15.2871 166.157 15.5137 165.61 15.6777C165.071 15.8418 164.466 15.9238 163.794 15.9238ZM161.192 15.0801H163.794C164.544 15.0801 165.204 15.1543 165.774 15.3027C166.352 15.4434 166.837 15.6543 167.227 15.9355C167.618 16.2168 167.911 16.5645 168.106 16.9785C168.31 17.3848 168.411 17.8535 168.411 18.3848C168.411 18.9863 168.27 19.5254 167.989 20.002C167.708 20.4707 167.31 20.8691 166.794 21.1973C166.278 21.5254 165.669 21.7754 164.966 21.9473C164.263 22.1191 163.493 22.2051 162.657 22.2051C161.774 22.2051 160.919 22.0645 160.091 21.7832C159.263 21.502 158.583 21.0684 158.052 20.4824C157.52 19.8965 157.255 19.1426 157.255 18.2207H161.216C161.216 18.4316 161.274 18.627 161.392 18.8066C161.509 18.9863 161.692 19.1309 161.942 19.2402C162.2 19.3418 162.532 19.3926 162.938 19.3926C163.337 19.3926 163.645 19.3262 163.864 19.1934C164.091 19.0605 164.247 18.8887 164.333 18.6777C164.427 18.4668 164.474 18.252 164.474 18.0332C164.474 17.6973 164.411 17.4277 164.286 17.2246C164.161 17.0215 163.974 16.873 163.724 16.7793C163.481 16.6777 163.181 16.627 162.821 16.627H161.192V15.0801Z" fill="#1A1A1A"/>
<path d="M178.032 17.6113L180.903 9.29102H183.962L179.356 21.9707H176.72L172.126 9.29102H175.196L178.032 17.6113ZM174.306 9.29102V21.9707H170.356V9.29102H174.306ZM181.911 21.9707V9.29102H185.86V21.9707H181.911Z" fill="#1A1A1A"/>
<path d="M195.095 18.7832V13.5566C195.095 13.1973 195.044 12.8887 194.942 12.6309C194.841 12.373 194.681 12.1738 194.462 12.0332C194.243 11.8848 193.95 11.8105 193.583 11.8105C193.286 11.8105 193.032 11.8613 192.821 11.9629C192.61 12.0645 192.45 12.2168 192.341 12.4199C192.231 12.623 192.177 12.8809 192.177 13.1934H188.227C188.227 12.6074 188.356 12.0645 188.614 11.5645C188.88 11.0566 189.255 10.6152 189.739 10.2402C190.231 9.86523 190.817 9.57617 191.497 9.37305C192.185 9.16211 192.95 9.05664 193.794 9.05664C194.802 9.05664 195.7 9.22461 196.489 9.56055C197.286 9.89648 197.915 10.4004 198.376 11.0723C198.837 11.7363 199.067 12.5723 199.067 13.5801V18.7715C199.067 19.5996 199.114 20.2285 199.208 20.6582C199.302 21.0801 199.435 21.4512 199.606 21.7715V21.9707H195.645C195.458 21.5801 195.317 21.1035 195.224 20.541C195.138 19.9707 195.095 19.3848 195.095 18.7832ZM195.575 14.2246L195.599 16.334H193.852C193.485 16.334 193.173 16.3848 192.915 16.4863C192.665 16.5879 192.462 16.7285 192.306 16.9082C192.157 17.0801 192.048 17.2754 191.977 17.4941C191.915 17.7129 191.884 17.9434 191.884 18.1855C191.884 18.4199 191.938 18.6309 192.048 18.8184C192.165 18.998 192.321 19.1387 192.517 19.2402C192.712 19.3418 192.931 19.3926 193.173 19.3926C193.61 19.3926 193.981 19.3105 194.286 19.1465C194.599 18.9746 194.837 18.7676 195.001 18.5254C195.165 18.2832 195.247 18.0566 195.247 17.8457L196.114 19.4629C195.958 19.7754 195.778 20.0918 195.575 20.4121C195.38 20.7324 195.134 21.0293 194.837 21.3027C194.548 21.5684 194.192 21.7871 193.77 21.959C193.349 22.123 192.837 22.2051 192.235 22.2051C191.454 22.2051 190.735 22.0449 190.079 21.7246C189.431 21.4043 188.911 20.959 188.52 20.3887C188.13 19.8105 187.935 19.1465 187.935 18.3965C187.935 17.7402 188.052 17.1543 188.286 16.6387C188.528 16.123 188.892 15.6855 189.376 15.3262C189.86 14.9668 190.477 14.6934 191.227 14.5059C191.977 14.3184 192.86 14.2246 193.876 14.2246H195.575Z" fill="#1A1A1A"/>
</svg>
