<svg width="40" height="40" viewBox="0 0 40 40" fill="none" xmlns="http://www.w3.org/2000/svg">
<g clip-path="url(#clip0_63_5699)">
<path d="M21.8117 7.9803L21.8117 18.1881L31.9666 18.1881C32.1981 18.1808 32.4287 18.2205 32.6446 18.3045C32.8604 18.3886 33.0571 18.5154 33.2227 18.6773C33.5734 19.028 33.7704 19.5036 33.7704 19.9995C33.7704 20.4955 33.5734 20.9711 33.2227 21.3218C33.0637 21.487 32.8726 21.6179 32.6611 21.7066C32.4497 21.7953 32.2223 21.8398 31.993 21.8375L21.772 21.7714V32.0585C21.7768 32.4896 21.6158 32.9061 21.3225 33.222C20.9718 33.5727 20.4962 33.7697 20.0002 33.7697C19.5043 33.7697 19.0287 33.5727 18.678 33.222C18.5025 33.0605 18.3625 32.8643 18.2669 32.6457C18.1713 32.4272 18.1221 32.1912 18.1226 31.9527L18.1887 21.811H8.00741C7.7803 21.8147 7.5547 21.7734 7.34364 21.6894C7.13258 21.6054 6.94024 21.4805 6.77772 21.3218C6.42704 20.9711 6.23003 20.4955 6.23003 19.9995C6.23003 19.5036 6.42704 19.028 6.77772 18.6773C6.93675 18.5121 7.12786 18.3812 7.33932 18.2925C7.55078 18.2038 7.77813 18.1593 8.00741 18.1616L18.2284 18.2277L18.2284 7.94063C18.2237 7.50951 18.3846 7.09301 18.678 6.77705C19.0286 6.42637 19.5043 6.22936 20.0002 6.22936C20.4962 6.22936 20.9718 6.42637 21.3225 6.77705C21.6358 7.09836 21.8117 7.53074 21.8117 7.9803Z" fill="#6FFC2D"/>
</g>
<defs>
<clipPath id="clip0_63_5699">
<rect width="28.0491" height="28.0491" fill="white" transform="translate(20 0.16626) rotate(45)"/>
</clipPath>
</defs>
</svg>
