<svg width="17" height="12" viewBox="0 0 17 12" fill="none" xmlns="http://www.w3.org/2000/svg">
<path id="Vector" d="M9.18659 11.6171C3.4239 11.6171 0.136956 7.58809 0 0.883789H2.88661C2.98143 5.80458 5.10952 7.88893 6.79513 8.31869V0.883789H9.51318V5.1277C11.1777 4.94505 12.9265 3.01112 13.5165 0.883789H16.2346C16.0123 1.98708 15.5691 3.03172 14.9328 3.95237C14.2966 4.87302 13.4809 5.64988 12.5367 6.23434C13.5906 6.76838 14.5214 7.52427 15.2678 8.45213C16.0142 9.37998 16.5591 10.4587 16.8667 11.6171H13.8747C13.5986 10.611 13.0375 9.71027 12.2616 9.02796C11.4857 8.34564 10.5297 7.91203 9.51318 7.78149V11.6171H9.18659Z" fill="#6FFC2D"/>
</svg>
