<svg width="17" height="17" viewBox="0 0 17 17" fill="none" xmlns="http://www.w3.org/2000/svg">
<path id="Vector" d="M13.7439 3.23171C12.2293 1.72233 10.2098 0.883789 8.07805 0.883789C3.64634 0.883789 0.0560967 4.46157 0.0560967 8.87789C0.0560967 10.2755 0.44878 11.673 1.12195 12.847L0 16.9838L4.26342 15.8657C5.44146 16.4807 6.73171 16.8161 8.07805 16.8161C12.5098 16.8161 16.1 13.2383 16.1 8.82198C16.0439 6.75358 15.2585 4.74108 13.7439 3.23171ZM11.9488 11.7289C11.7805 12.1761 10.9951 12.6234 10.6024 12.6793C10.2659 12.7352 9.81707 12.7352 9.36829 12.6234C9.08781 12.5116 8.69512 12.3998 8.24634 12.1762C6.22683 11.3376 4.93659 9.32511 4.82439 9.1574C4.7122 9.04559 3.98293 8.09525 3.98293 7.089C3.98293 6.08275 4.4878 5.63552 4.6561 5.41191C4.82439 5.1883 5.04878 5.1883 5.21707 5.1883C5.32927 5.1883 5.49756 5.1883 5.60975 5.1883C5.72195 5.1883 5.89024 5.1324 6.05854 5.52372C6.22683 5.91504 6.61951 6.92129 6.67561 6.97719C6.73171 7.089 6.73171 7.2008 6.67561 7.31261C6.61951 7.42441 6.56341 7.53622 6.45122 7.64802C6.33902 7.75983 6.22683 7.92754 6.17073 7.98344C6.05853 8.09525 5.94634 8.20705 6.05854 8.37476C6.17073 8.59837 6.56341 9.2133 7.18049 9.77233C7.96585 10.4432 8.58293 10.6668 8.80732 10.7786C9.03171 10.8904 9.1439 10.8345 9.2561 10.7227C9.36829 10.6109 9.76098 10.1637 9.87317 9.94004C9.98537 9.71643 10.1537 9.77233 10.3219 9.82823C10.4902 9.88414 11.5 10.3873 11.6683 10.4991C11.8927 10.6109 12.0049 10.6668 12.061 10.7227C12.1171 10.8904 12.1171 11.2817 11.9488 11.7289Z" fill="#6FFC2D"/>
</svg>
